<mxfile host="app.diagrams.net" modified="2024-04-14T08:58:46.821Z" agent="Mozilla/5.0 (Macintosh; Intel Mac OS X 10_15_7) AppleWebKit/537.36 (KHTML, like Gecko) Chrome/123.0.0.0 Safari/537.36" etag="gMtrPKBwNYcTlpUmhmyw" version="24.2.3" type="github">
  <diagram name="第 1 页" id="wJhEwYLGdn9J4YAYP4-m">
    <mxGraphModel dx="1990" dy="927" grid="1" gridSize="10" guides="1" tooltips="1" connect="1" arrows="1" fold="1" page="1" pageScale="1" pageWidth="1169" pageHeight="1654" math="0" shadow="0">
      <root>
        <mxCell id="0" />
        <mxCell id="1" parent="0" />
        <mxCell id="CXjMhIONld0SCUVlDwSR-1" value="角色" style="swimlane;" parent="1" vertex="1">
          <mxGeometry x="280" y="200" width="940" height="20" as="geometry" />
        </mxCell>
        <mxCell id="CXjMhIONld0SCUVlDwSR-2" value="告警处理阶段" style="swimlane;childLayout=stackLayout;resizeParent=1;resizeParentMax=0;horizontal=0;startSize=20;horizontalStack=0;html=1;" parent="1" vertex="1" collapsed="1">
          <mxGeometry x="260" y="240" width="20" height="810" as="geometry">
            <mxRectangle x="80" y="320" width="480" height="30" as="alternateBounds" />
          </mxGeometry>
        </mxCell>
        <mxCell id="CXjMhIONld0SCUVlDwSR-3" value="告警平台" style="swimlane;" parent="1" vertex="1">
          <mxGeometry x="280" y="220" width="140" height="20" as="geometry" />
        </mxCell>
        <mxCell id="CXjMhIONld0SCUVlDwSR-5" value="二线运维" style="swimlane;startSize=23;" parent="1" vertex="1">
          <mxGeometry x="680" y="220" width="205" height="20" as="geometry" />
        </mxCell>
        <mxCell id="CXjMhIONld0SCUVlDwSR-6" value="小组管理员" style="swimlane;startSize=23;" parent="1" vertex="1">
          <mxGeometry x="1085" y="220" width="135" height="20" as="geometry" />
        </mxCell>
        <mxCell id="CXjMhIONld0SCUVlDwSR-20" value="告警响应前" style="swimlane;horizontal=0;whiteSpace=wrap;html=1;startSize=23;" parent="1" vertex="1">
          <mxGeometry x="280" y="240" width="20" height="340" as="geometry" />
        </mxCell>
        <mxCell id="CXjMhIONld0SCUVlDwSR-21" value="告警处理前" style="swimlane;horizontal=0;whiteSpace=wrap;html=1;startSize=23;" parent="1" vertex="1">
          <mxGeometry x="280" y="580" width="20" height="70" as="geometry" />
        </mxCell>
        <mxCell id="CXjMhIONld0SCUVlDwSR-22" value="告警处理中" style="swimlane;horizontal=0;whiteSpace=wrap;html=1;startSize=23;" parent="1" vertex="1">
          <mxGeometry x="280" y="650" width="20" height="170" as="geometry" />
        </mxCell>
        <mxCell id="CXjMhIONld0SCUVlDwSR-23" value="告警处理后" style="swimlane;horizontal=0;whiteSpace=wrap;html=1;startSize=23;" parent="1" vertex="1">
          <mxGeometry x="280" y="820" width="20" height="130" as="geometry" />
        </mxCell>
        <mxCell id="RKpKivzAUTmtEg0wPXKK-10" style="edgeStyle=orthogonalEdgeStyle;rounded=0;orthogonalLoop=1;jettySize=auto;html=1;entryX=0.5;entryY=0;entryDx=0;entryDy=0;" edge="1" parent="1" source="CXjMhIONld0SCUVlDwSR-24" target="CXjMhIONld0SCUVlDwSR-25">
          <mxGeometry relative="1" as="geometry" />
        </mxCell>
        <mxCell id="CXjMhIONld0SCUVlDwSR-24" value="有效告警" style="ellipse;whiteSpace=wrap;html=1;" parent="1" vertex="1">
          <mxGeometry x="310" y="340" width="80" height="30" as="geometry" />
        </mxCell>
        <mxCell id="CXjMhIONld0SCUVlDwSR-30" style="edgeStyle=orthogonalEdgeStyle;rounded=0;orthogonalLoop=1;jettySize=auto;html=1;entryX=0.5;entryY=0;entryDx=0;entryDy=0;" parent="1" source="CXjMhIONld0SCUVlDwSR-25" target="CXjMhIONld0SCUVlDwSR-29" edge="1">
          <mxGeometry relative="1" as="geometry" />
        </mxCell>
        <mxCell id="CXjMhIONld0SCUVlDwSR-31" value="是" style="edgeLabel;html=1;align=center;verticalAlign=middle;resizable=0;points=[];" parent="CXjMhIONld0SCUVlDwSR-30" vertex="1" connectable="0">
          <mxGeometry x="-0.9077" y="2" relative="1" as="geometry">
            <mxPoint as="offset" />
          </mxGeometry>
        </mxCell>
        <mxCell id="RKpKivzAUTmtEg0wPXKK-13" style="edgeStyle=orthogonalEdgeStyle;rounded=0;orthogonalLoop=1;jettySize=auto;html=1;entryX=0.5;entryY=0;entryDx=0;entryDy=0;" edge="1" parent="1" source="CXjMhIONld0SCUVlDwSR-25" target="CXjMhIONld0SCUVlDwSR-26">
          <mxGeometry relative="1" as="geometry" />
        </mxCell>
        <mxCell id="CXjMhIONld0SCUVlDwSR-25" value="是否符合告警分派规则" style="rhombus;whiteSpace=wrap;html=1;" parent="1" vertex="1">
          <mxGeometry x="310" y="400" width="80" height="50" as="geometry" />
        </mxCell>
        <mxCell id="CXjMhIONld0SCUVlDwSR-39" value="" style="edgeStyle=orthogonalEdgeStyle;rounded=0;orthogonalLoop=1;jettySize=auto;html=1;entryX=0;entryY=0.5;entryDx=0;entryDy=0;" parent="1" source="CXjMhIONld0SCUVlDwSR-26" target="CXjMhIONld0SCUVlDwSR-38" edge="1">
          <mxGeometry relative="1" as="geometry" />
        </mxCell>
        <mxCell id="CXjMhIONld0SCUVlDwSR-44" value="否" style="edgeLabel;html=1;align=center;verticalAlign=middle;resizable=0;points=[];" parent="CXjMhIONld0SCUVlDwSR-39" vertex="1" connectable="0">
          <mxGeometry x="-0.2574" y="1" relative="1" as="geometry">
            <mxPoint x="-5" y="1" as="offset" />
          </mxGeometry>
        </mxCell>
        <mxCell id="RKpKivzAUTmtEg0wPXKK-48" style="edgeStyle=orthogonalEdgeStyle;rounded=0;orthogonalLoop=1;jettySize=auto;html=1;" edge="1" parent="1" source="CXjMhIONld0SCUVlDwSR-26">
          <mxGeometry relative="1" as="geometry">
            <mxPoint x="350" y="730" as="targetPoint" />
          </mxGeometry>
        </mxCell>
        <mxCell id="CXjMhIONld0SCUVlDwSR-26" value="是否符合告警自愈规则" style="rhombus;whiteSpace=wrap;html=1;" parent="1" vertex="1">
          <mxGeometry x="310" y="480" width="80" height="50" as="geometry" />
        </mxCell>
        <mxCell id="CXjMhIONld0SCUVlDwSR-35" value="" style="edgeStyle=orthogonalEdgeStyle;rounded=0;orthogonalLoop=1;jettySize=auto;html=1;" parent="1" source="CXjMhIONld0SCUVlDwSR-29" edge="1">
          <mxGeometry relative="1" as="geometry">
            <mxPoint x="740" y="680" as="targetPoint" />
          </mxGeometry>
        </mxCell>
        <mxCell id="CXjMhIONld0SCUVlDwSR-29" value="告警响应" style="rounded=1;whiteSpace=wrap;html=1;" parent="1" vertex="1">
          <mxGeometry x="705" y="610" width="70" height="30" as="geometry" />
        </mxCell>
        <mxCell id="CXjMhIONld0SCUVlDwSR-33" style="edgeStyle=orthogonalEdgeStyle;rounded=0;orthogonalLoop=1;jettySize=auto;html=1;exitX=0.5;exitY=1;exitDx=0;exitDy=0;" parent="1" source="CXjMhIONld0SCUVlDwSR-21" target="CXjMhIONld0SCUVlDwSR-21" edge="1">
          <mxGeometry relative="1" as="geometry" />
        </mxCell>
        <mxCell id="CXjMhIONld0SCUVlDwSR-51" value="" style="edgeStyle=orthogonalEdgeStyle;rounded=0;orthogonalLoop=1;jettySize=auto;html=1;" parent="1" source="CXjMhIONld0SCUVlDwSR-38" target="CXjMhIONld0SCUVlDwSR-48" edge="1">
          <mxGeometry relative="1" as="geometry" />
        </mxCell>
        <mxCell id="CXjMhIONld0SCUVlDwSR-55" value="根据值班日历/交易日历" style="edgeLabel;html=1;align=center;verticalAlign=middle;resizable=0;points=[];" parent="CXjMhIONld0SCUVlDwSR-51" vertex="1" connectable="0">
          <mxGeometry x="-0.6185" relative="1" as="geometry">
            <mxPoint as="offset" />
          </mxGeometry>
        </mxCell>
        <mxCell id="CXjMhIONld0SCUVlDwSR-38" value="告警分派" style="whiteSpace=wrap;html=1;rounded=1;" parent="1" vertex="1">
          <mxGeometry x="430" y="440" width="90" height="30" as="geometry" />
        </mxCell>
        <mxCell id="RKpKivzAUTmtEg0wPXKK-90" value="" style="edgeStyle=orthogonalEdgeStyle;rounded=0;orthogonalLoop=1;jettySize=auto;html=1;" edge="1" parent="1" source="CXjMhIONld0SCUVlDwSR-42" target="RKpKivzAUTmtEg0wPXKK-89">
          <mxGeometry relative="1" as="geometry" />
        </mxCell>
        <mxCell id="CXjMhIONld0SCUVlDwSR-42" value="告警恢复" style="rounded=1;whiteSpace=wrap;html=1;" parent="1" vertex="1">
          <mxGeometry x="310" y="865" width="80" height="35" as="geometry" />
        </mxCell>
        <mxCell id="RKpKivzAUTmtEg0wPXKK-62" value="" style="edgeStyle=orthogonalEdgeStyle;rounded=0;orthogonalLoop=1;jettySize=auto;html=1;" edge="1" parent="1" source="CXjMhIONld0SCUVlDwSR-48" target="RKpKivzAUTmtEg0wPXKK-61">
          <mxGeometry relative="1" as="geometry" />
        </mxCell>
        <mxCell id="RKpKivzAUTmtEg0wPXKK-67" style="edgeStyle=orthogonalEdgeStyle;rounded=0;orthogonalLoop=1;jettySize=auto;html=1;entryX=0;entryY=0.75;entryDx=0;entryDy=0;" edge="1" parent="1" source="CXjMhIONld0SCUVlDwSR-48" target="CXjMhIONld0SCUVlDwSR-29">
          <mxGeometry relative="1" as="geometry">
            <Array as="points">
              <mxPoint x="470" y="633" />
            </Array>
          </mxGeometry>
        </mxCell>
        <mxCell id="CXjMhIONld0SCUVlDwSR-48" value="是否响应" style="rhombus;whiteSpace=wrap;html=1;rounded=0;" parent="1" vertex="1">
          <mxGeometry x="435" y="500" width="80" height="40" as="geometry" />
        </mxCell>
        <mxCell id="RKpKivzAUTmtEg0wPXKK-40" style="edgeStyle=orthogonalEdgeStyle;rounded=0;orthogonalLoop=1;jettySize=auto;html=1;" edge="1" parent="1" source="CXjMhIONld0SCUVlDwSR-54">
          <mxGeometry relative="1" as="geometry">
            <mxPoint x="950" y="680" as="targetPoint" />
          </mxGeometry>
        </mxCell>
        <mxCell id="CXjMhIONld0SCUVlDwSR-54" value="告警响应" style="rounded=1;whiteSpace=wrap;html=1;" parent="1" vertex="1">
          <mxGeometry x="915" y="610" width="70" height="30" as="geometry" />
        </mxCell>
        <mxCell id="CXjMhIONld0SCUVlDwSR-63" value="" style="endArrow=none;html=1;rounded=0;entryX=0;entryY=1;entryDx=0;entryDy=0;" parent="1" edge="1" target="CXjMhIONld0SCUVlDwSR-4">
          <mxGeometry width="50" height="50" relative="1" as="geometry">
            <mxPoint x="420" y="1050" as="sourcePoint" />
            <mxPoint x="420" y="350" as="targetPoint" />
          </mxGeometry>
        </mxCell>
        <mxCell id="CXjMhIONld0SCUVlDwSR-66" value="" style="endArrow=none;html=1;rounded=0;entryX=0;entryY=1;entryDx=0;entryDy=0;" parent="1" edge="1" target="CXjMhIONld0SCUVlDwSR-6">
          <mxGeometry width="50" height="50" relative="1" as="geometry">
            <mxPoint x="1085" y="1050" as="sourcePoint" />
            <mxPoint x="1084.8400000000001" y="340" as="targetPoint" />
          </mxGeometry>
        </mxCell>
        <mxCell id="CXjMhIONld0SCUVlDwSR-68" value="" style="endArrow=none;html=1;rounded=0;exitX=1;exitY=1;exitDx=0;exitDy=0;" parent="1" edge="1">
          <mxGeometry width="50" height="50" relative="1" as="geometry">
            <mxPoint x="300" y="819.2" as="sourcePoint" />
            <mxPoint x="1220" y="820" as="targetPoint" />
          </mxGeometry>
        </mxCell>
        <mxCell id="CXjMhIONld0SCUVlDwSR-69" value="" style="endArrow=none;html=1;rounded=0;exitX=1;exitY=1;exitDx=0;exitDy=0;" parent="1" edge="1">
          <mxGeometry width="50" height="50" relative="1" as="geometry">
            <mxPoint x="300" y="580" as="sourcePoint" />
            <mxPoint x="1220" y="576.97" as="targetPoint" />
          </mxGeometry>
        </mxCell>
        <mxCell id="CXjMhIONld0SCUVlDwSR-70" value="" style="endArrow=none;html=1;rounded=0;exitX=1;exitY=1;exitDx=0;exitDy=0;" parent="1" edge="1">
          <mxGeometry width="50" height="50" relative="1" as="geometry">
            <mxPoint x="300" y="650" as="sourcePoint" />
            <mxPoint x="1220" y="650" as="targetPoint" />
          </mxGeometry>
        </mxCell>
        <mxCell id="RKpKivzAUTmtEg0wPXKK-7" style="edgeStyle=orthogonalEdgeStyle;rounded=0;orthogonalLoop=1;jettySize=auto;html=1;" edge="1" parent="1" source="RKpKivzAUTmtEg0wPXKK-3">
          <mxGeometry relative="1" as="geometry">
            <mxPoint x="350" y="340" as="targetPoint" />
          </mxGeometry>
        </mxCell>
        <mxCell id="RKpKivzAUTmtEg0wPXKK-3" value="" style="sketch=0;outlineConnect=0;fontColor=#232F3E;gradientColor=none;fillColor=#232F3D;strokeColor=none;dashed=0;verticalLabelPosition=bottom;verticalAlign=top;align=center;html=1;fontSize=12;fontStyle=0;aspect=fixed;pointerEvents=1;shape=mxgraph.aws4.client;" vertex="1" parent="1">
          <mxGeometry x="324.34" y="260" width="51.32" height="50" as="geometry" />
        </mxCell>
        <mxCell id="RKpKivzAUTmtEg0wPXKK-8" value="统一告警平台" style="text;html=1;align=center;verticalAlign=middle;whiteSpace=wrap;rounded=0;" vertex="1" parent="1">
          <mxGeometry x="305" y="240" width="90" height="30" as="geometry" />
        </mxCell>
        <mxCell id="RKpKivzAUTmtEg0wPXKK-12" value="否" style="edgeLabel;html=1;align=center;verticalAlign=middle;resizable=0;points=[];" vertex="1" connectable="0" parent="1">
          <mxGeometry x="414" y="502.4" as="geometry">
            <mxPoint x="-44" y="-46" as="offset" />
          </mxGeometry>
        </mxCell>
        <mxCell id="RKpKivzAUTmtEg0wPXKK-17" style="edgeStyle=orthogonalEdgeStyle;rounded=0;orthogonalLoop=1;jettySize=auto;html=1;entryX=0.5;entryY=0;entryDx=0;entryDy=0;" edge="1" parent="1" source="RKpKivzAUTmtEg0wPXKK-14" target="RKpKivzAUTmtEg0wPXKK-16">
          <mxGeometry relative="1" as="geometry" />
        </mxCell>
        <mxCell id="RKpKivzAUTmtEg0wPXKK-18" value="是" style="edgeLabel;html=1;align=center;verticalAlign=middle;resizable=0;points=[];" vertex="1" connectable="0" parent="RKpKivzAUTmtEg0wPXKK-17">
          <mxGeometry x="-0.5108" y="1" relative="1" as="geometry">
            <mxPoint as="offset" />
          </mxGeometry>
        </mxCell>
        <mxCell id="RKpKivzAUTmtEg0wPXKK-20" value="" style="edgeStyle=orthogonalEdgeStyle;rounded=0;orthogonalLoop=1;jettySize=auto;html=1;" edge="1" parent="1" source="RKpKivzAUTmtEg0wPXKK-14" target="RKpKivzAUTmtEg0wPXKK-19">
          <mxGeometry relative="1" as="geometry" />
        </mxCell>
        <mxCell id="RKpKivzAUTmtEg0wPXKK-14" value="是否可关闭" style="rhombus;whiteSpace=wrap;html=1;" vertex="1" parent="1">
          <mxGeometry x="700" y="680" width="80" height="40" as="geometry" />
        </mxCell>
        <mxCell id="RKpKivzAUTmtEg0wPXKK-16" value="告警关闭" style="rounded=1;whiteSpace=wrap;html=1;" vertex="1" parent="1">
          <mxGeometry x="700" y="867.5" width="80" height="35" as="geometry" />
        </mxCell>
        <mxCell id="RKpKivzAUTmtEg0wPXKK-23" value="" style="edgeStyle=orthogonalEdgeStyle;rounded=0;orthogonalLoop=1;jettySize=auto;html=1;" edge="1" parent="1" source="RKpKivzAUTmtEg0wPXKK-19" target="RKpKivzAUTmtEg0wPXKK-22">
          <mxGeometry relative="1" as="geometry" />
        </mxCell>
        <mxCell id="RKpKivzAUTmtEg0wPXKK-19" value="告警处理" style="whiteSpace=wrap;html=1;rounded=1;" vertex="1" parent="1">
          <mxGeometry x="795" y="682.5" width="60" height="35" as="geometry" />
        </mxCell>
        <mxCell id="RKpKivzAUTmtEg0wPXKK-21" value="否" style="edgeLabel;html=1;align=center;verticalAlign=middle;resizable=0;points=[];" vertex="1" connectable="0" parent="1">
          <mxGeometry x="750.9999999999998" y="775.0048717948719" as="geometry">
            <mxPoint x="32" y="-85" as="offset" />
          </mxGeometry>
        </mxCell>
        <mxCell id="RKpKivzAUTmtEg0wPXKK-25" style="edgeStyle=orthogonalEdgeStyle;rounded=0;orthogonalLoop=1;jettySize=auto;html=1;entryX=0.5;entryY=0;entryDx=0;entryDy=0;" edge="1" parent="1" source="RKpKivzAUTmtEg0wPXKK-22" target="RKpKivzAUTmtEg0wPXKK-24">
          <mxGeometry relative="1" as="geometry">
            <mxPoint x="825.0000000000002" y="860" as="targetPoint" />
            <Array as="points" />
          </mxGeometry>
        </mxCell>
        <mxCell id="RKpKivzAUTmtEg0wPXKK-37" value="是" style="edgeLabel;html=1;align=center;verticalAlign=middle;resizable=0;points=[];" vertex="1" connectable="0" parent="RKpKivzAUTmtEg0wPXKK-25">
          <mxGeometry x="-0.2563" y="1" relative="1" as="geometry">
            <mxPoint as="offset" />
          </mxGeometry>
        </mxCell>
        <mxCell id="RKpKivzAUTmtEg0wPXKK-39" style="edgeStyle=orthogonalEdgeStyle;rounded=0;orthogonalLoop=1;jettySize=auto;html=1;entryX=0;entryY=0.5;entryDx=0;entryDy=0;" edge="1" parent="1" source="RKpKivzAUTmtEg0wPXKK-22" target="RKpKivzAUTmtEg0wPXKK-28">
          <mxGeometry relative="1" as="geometry" />
        </mxCell>
        <mxCell id="RKpKivzAUTmtEg0wPXKK-22" value="是否恢复" style="rhombus;whiteSpace=wrap;html=1;" vertex="1" parent="1">
          <mxGeometry x="785" y="735" width="80" height="45" as="geometry" />
        </mxCell>
        <mxCell id="RKpKivzAUTmtEg0wPXKK-24" value="告警恢复" style="rounded=1;whiteSpace=wrap;html=1;" vertex="1" parent="1">
          <mxGeometry x="785" y="867.5" width="80" height="35" as="geometry" />
        </mxCell>
        <mxCell id="RKpKivzAUTmtEg0wPXKK-26" value="系统负责人" style="swimlane;startSize=23;" vertex="1" parent="1">
          <mxGeometry x="885" y="220" width="200" height="20" as="geometry" />
        </mxCell>
        <mxCell id="RKpKivzAUTmtEg0wPXKK-31" value="" style="edgeStyle=orthogonalEdgeStyle;rounded=0;orthogonalLoop=1;jettySize=auto;html=1;" edge="1" parent="1" source="RKpKivzAUTmtEg0wPXKK-28" target="RKpKivzAUTmtEg0wPXKK-29">
          <mxGeometry relative="1" as="geometry" />
        </mxCell>
        <mxCell id="RKpKivzAUTmtEg0wPXKK-34" value="" style="edgeStyle=orthogonalEdgeStyle;rounded=0;orthogonalLoop=1;jettySize=auto;html=1;" edge="1" parent="1" source="RKpKivzAUTmtEg0wPXKK-28" target="RKpKivzAUTmtEg0wPXKK-33">
          <mxGeometry relative="1" as="geometry">
            <Array as="points">
              <mxPoint x="950" y="840" />
              <mxPoint x="950" y="840" />
            </Array>
          </mxGeometry>
        </mxCell>
        <mxCell id="RKpKivzAUTmtEg0wPXKK-102" value="是" style="edgeLabel;html=1;align=center;verticalAlign=middle;resizable=0;points=[];" vertex="1" connectable="0" parent="RKpKivzAUTmtEg0wPXKK-34">
          <mxGeometry x="-0.0517" relative="1" as="geometry">
            <mxPoint y="9" as="offset" />
          </mxGeometry>
        </mxCell>
        <mxCell id="RKpKivzAUTmtEg0wPXKK-28" value="是否可关闭" style="rhombus;whiteSpace=wrap;html=1;" vertex="1" parent="1">
          <mxGeometry x="910" y="682.5" width="80" height="40" as="geometry" />
        </mxCell>
        <mxCell id="RKpKivzAUTmtEg0wPXKK-36" value="" style="edgeStyle=orthogonalEdgeStyle;rounded=0;orthogonalLoop=1;jettySize=auto;html=1;" edge="1" parent="1" source="RKpKivzAUTmtEg0wPXKK-29" target="RKpKivzAUTmtEg0wPXKK-35">
          <mxGeometry relative="1" as="geometry" />
        </mxCell>
        <mxCell id="RKpKivzAUTmtEg0wPXKK-29" value="告警处理" style="whiteSpace=wrap;html=1;rounded=1;" vertex="1" parent="1">
          <mxGeometry x="1005" y="685" width="60" height="35" as="geometry" />
        </mxCell>
        <mxCell id="RKpKivzAUTmtEg0wPXKK-32" value="否" style="text;html=1;align=center;verticalAlign=middle;whiteSpace=wrap;rounded=0;" vertex="1" parent="1">
          <mxGeometry x="965" y="670" width="60" height="30" as="geometry" />
        </mxCell>
        <mxCell id="RKpKivzAUTmtEg0wPXKK-33" value="告警关闭" style="rounded=1;whiteSpace=wrap;html=1;" vertex="1" parent="1">
          <mxGeometry x="910" y="867.5" width="80" height="32.5" as="geometry" />
        </mxCell>
        <mxCell id="RKpKivzAUTmtEg0wPXKK-43" value="" style="edgeStyle=orthogonalEdgeStyle;rounded=0;orthogonalLoop=1;jettySize=auto;html=1;" edge="1" parent="1" source="RKpKivzAUTmtEg0wPXKK-35" target="RKpKivzAUTmtEg0wPXKK-42">
          <mxGeometry relative="1" as="geometry" />
        </mxCell>
        <mxCell id="RKpKivzAUTmtEg0wPXKK-45" value="是" style="edgeLabel;html=1;align=center;verticalAlign=middle;resizable=0;points=[];" vertex="1" connectable="0" parent="RKpKivzAUTmtEg0wPXKK-43">
          <mxGeometry x="-0.3556" y="1" relative="1" as="geometry">
            <mxPoint as="offset" />
          </mxGeometry>
        </mxCell>
        <mxCell id="RKpKivzAUTmtEg0wPXKK-54" style="edgeStyle=orthogonalEdgeStyle;rounded=0;orthogonalLoop=1;jettySize=auto;html=1;entryX=0;entryY=0.5;entryDx=0;entryDy=0;" edge="1" parent="1" source="RKpKivzAUTmtEg0wPXKK-35" target="RKpKivzAUTmtEg0wPXKK-53">
          <mxGeometry relative="1" as="geometry" />
        </mxCell>
        <mxCell id="RKpKivzAUTmtEg0wPXKK-35" value="是否恢复" style="rhombus;whiteSpace=wrap;html=1;" vertex="1" parent="1">
          <mxGeometry x="995" y="735" width="80" height="45" as="geometry" />
        </mxCell>
        <mxCell id="RKpKivzAUTmtEg0wPXKK-41" value="告警升级" style="edgeLabel;html=1;align=center;verticalAlign=middle;resizable=0;points=[];" vertex="1" connectable="0" parent="1">
          <mxGeometry x="855.0000000000002" y="827" as="geometry">
            <mxPoint x="32" y="-93" as="offset" />
          </mxGeometry>
        </mxCell>
        <mxCell id="RKpKivzAUTmtEg0wPXKK-42" value="告警恢复" style="rounded=1;whiteSpace=wrap;html=1;" vertex="1" parent="1">
          <mxGeometry x="995" y="870" width="80" height="30" as="geometry" />
        </mxCell>
        <mxCell id="RKpKivzAUTmtEg0wPXKK-49" value="" style="edgeStyle=orthogonalEdgeStyle;rounded=0;orthogonalLoop=1;jettySize=auto;html=1;" edge="1" parent="1" source="RKpKivzAUTmtEg0wPXKK-47" target="CXjMhIONld0SCUVlDwSR-42">
          <mxGeometry relative="1" as="geometry" />
        </mxCell>
        <mxCell id="RKpKivzAUTmtEg0wPXKK-50" value="是" style="edgeLabel;html=1;align=center;verticalAlign=middle;resizable=0;points=[];" vertex="1" connectable="0" parent="RKpKivzAUTmtEg0wPXKK-49">
          <mxGeometry x="-0.3778" y="1" relative="1" as="geometry">
            <mxPoint as="offset" />
          </mxGeometry>
        </mxCell>
        <mxCell id="RKpKivzAUTmtEg0wPXKK-51" style="edgeStyle=orthogonalEdgeStyle;rounded=0;orthogonalLoop=1;jettySize=auto;html=1;" edge="1" parent="1" source="RKpKivzAUTmtEg0wPXKK-47">
          <mxGeometry relative="1" as="geometry">
            <mxPoint x="430" y="490" as="targetPoint" />
          </mxGeometry>
        </mxCell>
        <mxCell id="RKpKivzAUTmtEg0wPXKK-52" value="否" style="edgeLabel;html=1;align=center;verticalAlign=middle;resizable=0;points=[];" vertex="1" connectable="0" parent="RKpKivzAUTmtEg0wPXKK-51">
          <mxGeometry x="-0.9083" y="2" relative="1" as="geometry">
            <mxPoint as="offset" />
          </mxGeometry>
        </mxCell>
        <mxCell id="RKpKivzAUTmtEg0wPXKK-47" value="是否恢复" style="rhombus;whiteSpace=wrap;html=1;" vertex="1" parent="1">
          <mxGeometry x="310" y="735" width="80" height="40" as="geometry" />
        </mxCell>
        <mxCell id="RKpKivzAUTmtEg0wPXKK-58" value="" style="edgeStyle=orthogonalEdgeStyle;rounded=0;orthogonalLoop=1;jettySize=auto;html=1;" edge="1" parent="1" source="RKpKivzAUTmtEg0wPXKK-53" target="RKpKivzAUTmtEg0wPXKK-57">
          <mxGeometry relative="1" as="geometry" />
        </mxCell>
        <mxCell id="RKpKivzAUTmtEg0wPXKK-53" value="告警处理" style="whiteSpace=wrap;html=1;rounded=1;" vertex="1" parent="1">
          <mxGeometry x="1125" y="685" width="60" height="35" as="geometry" />
        </mxCell>
        <mxCell id="RKpKivzAUTmtEg0wPXKK-55" value="否" style="edgeLabel;html=1;align=center;verticalAlign=middle;resizable=0;points=[];" vertex="1" connectable="0" parent="1">
          <mxGeometry x="1035" y="790" as="geometry">
            <mxPoint x="39" y="-44" as="offset" />
          </mxGeometry>
        </mxCell>
        <mxCell id="RKpKivzAUTmtEg0wPXKK-95" style="edgeStyle=orthogonalEdgeStyle;rounded=0;orthogonalLoop=1;jettySize=auto;html=1;entryX=1;entryY=0.5;entryDx=0;entryDy=0;" edge="1" parent="1" target="RKpKivzAUTmtEg0wPXKK-89">
          <mxGeometry relative="1" as="geometry">
            <mxPoint x="1154.8199999999997" y="902.5" as="sourcePoint" />
            <mxPoint x="375.6599999999999" y="1020.4750000000001" as="targetPoint" />
            <Array as="points">
              <mxPoint x="1155" y="1018" />
              <mxPoint x="1146" y="1018" />
            </Array>
          </mxGeometry>
        </mxCell>
        <mxCell id="RKpKivzAUTmtEg0wPXKK-57" value="告警恢复" style="whiteSpace=wrap;html=1;rounded=1;" vertex="1" parent="1">
          <mxGeometry x="1110" y="870" width="90" height="32.5" as="geometry" />
        </mxCell>
        <mxCell id="RKpKivzAUTmtEg0wPXKK-60" value="" style="edgeStyle=orthogonalEdgeStyle;rounded=0;orthogonalLoop=1;jettySize=auto;html=1;" edge="1" parent="1" source="RKpKivzAUTmtEg0wPXKK-59" target="RKpKivzAUTmtEg0wPXKK-53">
          <mxGeometry relative="1" as="geometry" />
        </mxCell>
        <mxCell id="RKpKivzAUTmtEg0wPXKK-59" value="告警响应" style="rounded=1;whiteSpace=wrap;html=1;" vertex="1" parent="1">
          <mxGeometry x="1120" y="600" width="70" height="30" as="geometry" />
        </mxCell>
        <mxCell id="RKpKivzAUTmtEg0wPXKK-68" value="" style="edgeStyle=orthogonalEdgeStyle;rounded=0;orthogonalLoop=1;jettySize=auto;html=1;" edge="1" parent="1" source="RKpKivzAUTmtEg0wPXKK-61" target="RKpKivzAUTmtEg0wPXKK-66">
          <mxGeometry relative="1" as="geometry" />
        </mxCell>
        <mxCell id="RKpKivzAUTmtEg0wPXKK-61" value="告警升级" style="rounded=1;whiteSpace=wrap;html=1;" vertex="1" parent="1">
          <mxGeometry x="550" y="475" width="70" height="25" as="geometry" />
        </mxCell>
        <mxCell id="RKpKivzAUTmtEg0wPXKK-63" value="否" style="edgeLabel;html=1;align=center;verticalAlign=middle;resizable=0;points=[];" vertex="1" connectable="0" parent="1">
          <mxGeometry x="477.0344827586209" y="593.0344827586207" as="geometry">
            <mxPoint x="48" y="-86" as="offset" />
          </mxGeometry>
        </mxCell>
        <mxCell id="CXjMhIONld0SCUVlDwSR-4" value="一线运维" style="swimlane;" parent="1" vertex="1">
          <mxGeometry x="420" y="220" width="260" height="20" as="geometry" />
        </mxCell>
        <mxCell id="RKpKivzAUTmtEg0wPXKK-73" value="" style="edgeStyle=orthogonalEdgeStyle;rounded=0;orthogonalLoop=1;jettySize=auto;html=1;" edge="1" parent="1" source="RKpKivzAUTmtEg0wPXKK-66" target="RKpKivzAUTmtEg0wPXKK-71">
          <mxGeometry relative="1" as="geometry" />
        </mxCell>
        <mxCell id="RKpKivzAUTmtEg0wPXKK-77" style="edgeStyle=orthogonalEdgeStyle;rounded=0;orthogonalLoop=1;jettySize=auto;html=1;entryX=0.5;entryY=0;entryDx=0;entryDy=0;" edge="1" parent="1" source="RKpKivzAUTmtEg0wPXKK-66" target="CXjMhIONld0SCUVlDwSR-54">
          <mxGeometry relative="1" as="geometry">
            <Array as="points">
              <mxPoint x="550" y="590" />
              <mxPoint x="950" y="590" />
            </Array>
          </mxGeometry>
        </mxCell>
        <mxCell id="RKpKivzAUTmtEg0wPXKK-78" value="是" style="edgeLabel;html=1;align=center;verticalAlign=middle;resizable=0;points=[];" vertex="1" connectable="0" parent="RKpKivzAUTmtEg0wPXKK-77">
          <mxGeometry x="-0.7599" y="-4" relative="1" as="geometry">
            <mxPoint as="offset" />
          </mxGeometry>
        </mxCell>
        <mxCell id="RKpKivzAUTmtEg0wPXKK-66" value="是否响应" style="rhombus;whiteSpace=wrap;html=1;rounded=0;" vertex="1" parent="1">
          <mxGeometry x="510" y="537.5" width="80" height="40" as="geometry" />
        </mxCell>
        <mxCell id="RKpKivzAUTmtEg0wPXKK-76" style="edgeStyle=orthogonalEdgeStyle;rounded=0;orthogonalLoop=1;jettySize=auto;html=1;entryX=0.5;entryY=0;entryDx=0;entryDy=0;" edge="1" parent="1" source="RKpKivzAUTmtEg0wPXKK-71" target="RKpKivzAUTmtEg0wPXKK-59">
          <mxGeometry relative="1" as="geometry" />
        </mxCell>
        <mxCell id="RKpKivzAUTmtEg0wPXKK-71" value="告警升级" style="rounded=1;whiteSpace=wrap;html=1;" vertex="1" parent="1">
          <mxGeometry x="610" y="545" width="60" height="25" as="geometry" />
        </mxCell>
        <mxCell id="RKpKivzAUTmtEg0wPXKK-74" value="否" style="text;html=1;align=center;verticalAlign=middle;whiteSpace=wrap;rounded=0;" vertex="1" parent="1">
          <mxGeometry x="560" y="542.5" width="60" height="30" as="geometry" />
        </mxCell>
        <mxCell id="RKpKivzAUTmtEg0wPXKK-83" value="" style="endArrow=none;html=1;rounded=0;entryX=1;entryY=1;entryDx=0;entryDy=0;" edge="1" parent="1" target="CXjMhIONld0SCUVlDwSR-4">
          <mxGeometry width="50" height="50" relative="1" as="geometry">
            <mxPoint x="680" y="943.8095238095239" as="sourcePoint" />
            <mxPoint x="680" y="250" as="targetPoint" />
            <Array as="points">
              <mxPoint x="680" y="1050" />
              <mxPoint x="680" y="944" />
            </Array>
          </mxGeometry>
        </mxCell>
        <mxCell id="RKpKivzAUTmtEg0wPXKK-85" value="" style="endArrow=none;html=1;rounded=0;entryX=1;entryY=1;entryDx=0;entryDy=0;" edge="1" parent="1" target="CXjMhIONld0SCUVlDwSR-6">
          <mxGeometry width="50" height="50" relative="1" as="geometry">
            <mxPoint x="1220" y="1050" as="sourcePoint" />
            <mxPoint x="1240" y="280" as="targetPoint" />
          </mxGeometry>
        </mxCell>
        <mxCell id="RKpKivzAUTmtEg0wPXKK-87" value="告警归档" style="swimlane;horizontal=0;whiteSpace=wrap;html=1;startSize=23;" vertex="1" parent="1">
          <mxGeometry x="280" y="950" width="20" height="100" as="geometry" />
        </mxCell>
        <mxCell id="RKpKivzAUTmtEg0wPXKK-88" value="" style="endArrow=none;html=1;rounded=0;exitX=1;exitY=0;exitDx=0;exitDy=0;" edge="1" parent="1" source="RKpKivzAUTmtEg0wPXKK-87">
          <mxGeometry width="50" height="50" relative="1" as="geometry">
            <mxPoint x="420" y="960" as="sourcePoint" />
            <mxPoint x="1220" y="950" as="targetPoint" />
          </mxGeometry>
        </mxCell>
        <mxCell id="RKpKivzAUTmtEg0wPXKK-89" value="告警归档" style="rounded=1;whiteSpace=wrap;html=1;" vertex="1" parent="1">
          <mxGeometry x="310" y="1000" width="80" height="35" as="geometry" />
        </mxCell>
        <mxCell id="RKpKivzAUTmtEg0wPXKK-91" value="" style="endArrow=none;html=1;rounded=0;exitX=1;exitY=0;exitDx=0;exitDy=0;" edge="1" parent="1">
          <mxGeometry width="50" height="50" relative="1" as="geometry">
            <mxPoint x="300" y="1049.13" as="sourcePoint" />
            <mxPoint x="1220" y="1049.13" as="targetPoint" />
          </mxGeometry>
        </mxCell>
        <mxCell id="RKpKivzAUTmtEg0wPXKK-96" value="" style="endArrow=none;html=1;rounded=0;" edge="1" parent="1">
          <mxGeometry width="50" height="50" relative="1" as="geometry">
            <mxPoint x="740.09" y="1020" as="sourcePoint" />
            <mxPoint x="739.8100000000001" y="902.5" as="targetPoint" />
          </mxGeometry>
        </mxCell>
        <mxCell id="RKpKivzAUTmtEg0wPXKK-97" value="" style="endArrow=none;html=1;rounded=0;" edge="1" parent="1">
          <mxGeometry width="50" height="50" relative="1" as="geometry">
            <mxPoint x="825.09" y="1020" as="sourcePoint" />
            <mxPoint x="824.8100000000001" y="902.5" as="targetPoint" />
          </mxGeometry>
        </mxCell>
        <mxCell id="RKpKivzAUTmtEg0wPXKK-98" value="" style="endArrow=none;html=1;rounded=0;" edge="1" parent="1">
          <mxGeometry width="50" height="50" relative="1" as="geometry">
            <mxPoint x="950.09" y="1017.5" as="sourcePoint" />
            <mxPoint x="949.8100000000001" y="900" as="targetPoint" />
          </mxGeometry>
        </mxCell>
        <mxCell id="RKpKivzAUTmtEg0wPXKK-99" value="" style="endArrow=none;html=1;rounded=0;" edge="1" parent="1">
          <mxGeometry width="50" height="50" relative="1" as="geometry">
            <mxPoint x="1035.28" y="1020" as="sourcePoint" />
            <mxPoint x="1035" y="902.5" as="targetPoint" />
          </mxGeometry>
        </mxCell>
        <mxCell id="RKpKivzAUTmtEg0wPXKK-101" value="" style="endArrow=none;html=1;rounded=0;" edge="1" parent="1">
          <mxGeometry width="50" height="50" relative="1" as="geometry">
            <mxPoint x="885" y="1051.025641025641" as="sourcePoint" />
            <mxPoint x="885" y="240" as="targetPoint" />
          </mxGeometry>
        </mxCell>
      </root>
    </mxGraphModel>
  </diagram>
</mxfile>
